<?xml version="1.0" encoding="iso-8859-1"?>
<!-- Generator: Adobe Illustrator 19.0.0, SVG Export Plug-In . SVG Version: 6.00 Build 0)  -->
<svg version="1.1" id="Layer_1" xmlns="http://www.w3.org/2000/svg" xmlns:xlink="http://www.w3.org/1999/xlink" x="0px" y="0px"
	 viewBox="0 0 512.004 512.004" style="enable-background:new 0 0 512.004 512.004;" xml:space="preserve">
<polygon style="fill:#CCCCCC;" points="260.791,471.196 178.434,471.196 185.329,442.471 191.991,414.76 247.244,414.76 
	253.895,442.471 "/>
<polygon style="fill:#999999;" points="253.895,442.471 185.329,442.471 191.991,414.76 218.186,386.226 247.244,414.76 "/>
<path style="fill:#CCCCCC;" d="M439.235,118.689v267.005c0,16.052-13.014,29.065-29.065,29.065H29.065
	C13.014,414.759,0,401.745,0,385.693V118.689c0-16.052,13.014-29.065,29.065-29.065h381.103
	C426.22,89.622,439.235,102.637,439.235,118.689z"/>
<path style="fill:#E6E6E6;" d="M439.235,118.69v267.005c0,16.052-13.014,29.065-29.065,29.065H176.674l91.162-325.135h142.332
	C426.22,89.625,439.235,102.638,439.235,118.69z"/>
<rect y="129.501" style="fill:#9BD7F4;" width="439.235" height="245.392"/>
<polygon style="fill:#C8EDFC;" points="439.235,129.498 439.235,374.887 187.855,374.887 256.655,129.498 "/>
<rect x="146.768" y="460.21" style="fill:#E6E6E6;" width="145.699" height="18.636"/>
<g>
	<rect y="369.922" style="fill:#B3B3B3;" width="439.235" height="9.939"/>
	<rect y="124.531" style="fill:#B3B3B3;" width="439.235" height="9.939"/>
</g>
<path style="fill:#666666;" d="M512,53.099v220.518c0,11.02-8.933,19.941-19.941,19.941H382.85c-11.02,0-19.941-8.921-19.941-19.941
	V53.099c0-11.02,8.921-19.941,19.941-19.941h109.209C503.067,33.158,512,42.078,512,53.099z"/>
<path style="fill:#999999;" d="M512,53.099v220.518c0,11.02-8.933,19.941-19.941,19.941h-94.487l73.005-260.4h21.482
	C503.067,33.158,512,42.078,512,53.099z"/>
<rect x="362.913" y="83.593" style="fill:#F9C573;" width="149.091" height="159.54"/>
<polygon style="fill:#FCD8A9;" points="512,83.588 512,243.128 411.711,243.128 456.439,83.588 "/>
<g>
	<polygon style="fill:#4D4D4D;" points="342.203,194.048 294.325,169.545 294.325,186.594 204.847,186.594 204.847,201.503 
		294.325,201.503 294.325,218.553 	"/>
	<polygon style="fill:#4D4D4D;" points="204.847,247.059 252.724,271.563 252.724,254.513 342.203,254.513 342.203,239.604 
		252.724,239.604 252.724,222.555 	"/>
	<circle style="fill:#4D4D4D;" cx="437.446" cy="268.18" r="9.318"/>
</g>
<g>
</g>
<g>
</g>
<g>
</g>
<g>
</g>
<g>
</g>
<g>
</g>
<g>
</g>
<g>
</g>
<g>
</g>
<g>
</g>
<g>
</g>
<g>
</g>
<g>
</g>
<g>
</g>
<g>
</g>
</svg>
